<?xml version="1.0" encoding="UTF-8"?>
<svg id="Capa_2" data-name="Capa 2" xmlns="http://www.w3.org/2000/svg" viewBox="0 0 300.28 111.69">
  <defs>
    <style>
      .cls-1, .cls-2 {
        fill: #fff;
      }

      .cls-2 {
        stroke: #fff;
        stroke-miterlimit: 10;
        stroke-width: 7px;
      }
    </style>
  </defs>
  <g id="Negro">
    <g>
      <polygon class="cls-2" points="81.42 108.05 3.5 108.05 3.5 3.54 79 3.54 79 15.94 17.33 15.94 17.33 47.88 75 47.88 72.48 60.28 17.33 60.28 17.33 95.64 81.42 95.64 81.42 108.05"/>
      <polygon class="cls-2" points="296.78 15.94 262.21 15.94 262.21 108.05 248.31 108.05 248.31 15.94 214.02 15.94 214.02 3.54 296.78 3.54 296.78 15.94"/>
      <path class="cls-1" d="m203.46,0v111.69s-19.44,0-19.44,0V42.23c-1.39,4.25-27.44,55.67-27.44,55.67h-17.42s-27.81-55.6-27.81-55.6v69.39s-19.38,0-19.38,0V0s19.38,0,19.38,0c0,0,35.33,68.02,36.28,71.01,1.5-5.28,36.39-71.01,36.39-71.01h19.44Z"/>
    </g>
  </g>
</svg>