<?xml version="1.0" encoding="UTF-8"?>
<svg id="Blanco" xmlns="http://www.w3.org/2000/svg" viewBox="0 0 500 500">
  <defs>
    <style>
      .cls-1 {
        stroke: #000;
        stroke-miterlimit: 10;
        stroke-width: 7px;
      }
    </style>
  </defs>
  <polygon class="cls-1" points="181.28 302.2 103.36 302.2 103.36 197.69 178.85 197.69 178.85 210.1 117.19 210.1 117.19 242.03 174.86 242.03 172.34 254.44 117.19 254.44 117.19 289.8 181.28 289.8 181.28 302.2"/>
  <polygon class="cls-1" points="396.64 210.1 362.07 210.1 362.07 302.2 348.17 302.2 348.17 210.1 313.88 210.1 313.88 197.69 396.64 197.69 396.64 210.1"/>
  <path d="m303.32,194.16v111.69s-19.44,0-19.44,0v-69.46c-1.39,4.25-27.44,55.67-27.44,55.67h-17.42s-27.81-55.6-27.81-55.6v69.39s-19.38,0-19.38,0v-111.69s19.38,0,19.38,0c0,0,35.33,68.02,36.28,71.01,1.5-5.28,36.39-71.01,36.39-71.01h19.44Z"/>
</svg>