<?xml version="1.0" encoding="UTF-8"?>
<svg id="Blanco" xmlns="http://www.w3.org/2000/svg" viewBox="0 0 500 500">
  <defs>
    <style>
      .cls-1 {
        letter-spacing: -.06em;
      }

      .cls-2 {
        letter-spacing: -.02em;
      }

      .cls-3 {
        font-family: ArialMT, Arial;
        font-size: 34px;
      }

      .cls-4 {
        stroke: #000;
        stroke-miterlimit: 10;
        stroke-width: 7px;
      }
    </style>
  </defs>
  <g>
    <polygon class="cls-4" points="181.28 282.45 103.36 282.45 103.36 177.94 178.85 177.94 178.85 190.34 117.19 190.34 117.19 222.28 174.86 222.28 172.34 234.69 117.19 234.69 117.19 270.05 181.28 270.05 181.28 282.45"/>
    <polygon class="cls-4" points="396.64 190.34 362.07 190.34 362.07 282.45 348.17 282.45 348.17 190.34 313.87 190.34 313.87 177.94 396.64 177.94 396.64 190.34"/>
    <path d="m303.32,174.4v111.69s-19.44,0-19.44,0v-69.46c-1.39,4.25-27.44,55.67-27.44,55.67h-17.42s-27.81-55.6-27.81-55.6v69.39s-19.38,0-19.38,0v-111.69s19.38,0,19.38,0c0,0,35.33,68.02,36.28,71.01,1.5-5.28,36.39-71.01,36.39-71.01h19.44Z"/>
  </g>
  <text class="cls-3" transform="translate(39.77 347.16) scale(.97 1)"><tspan x="0" y="0">BACHILLER</tspan><tspan class="cls-1" x="158.73" y="0">A</tspan><tspan class="cls-2" x="175.58" y="0">T</tspan><tspan x="192.23" y="0">O TECNOLÓGICO</tspan></text>
</svg>